<svg xmlns="http://www.w3.org/2000/svg" viewBox="0 0 1024 512" class="w-full"><defs><filter id="drop-shadow-3" filterUnits="userSpaceOnUse"><feOffset dx="1" dy="1"></feOffset><feGaussianBlur result="blur" stdDeviation="1"></feGaussianBlur><feFlood flood-color="#000" flood-opacity="1"></feFlood><feComposite in2="blur" operator="in"></feComposite><feComposite in="SourceGraphic"></feComposite></filter></defs><g id="White" filter="url(#drop-shadow-3)"><path fill="#fff" d="m40.4,235.52c.25-.25.56-.38.92-.38h12.54c.36,0,.67.13.92.38.25.25.38.56.38.92v73.07c0,.36-.13.67-.38.92-.25.25-.56.38-.92.38h-14.27c-.72,0-1.19-.36-1.41-1.08l-13.4-41.83c-.07-.22-.2-.31-.38-.27-.18.04-.27.16-.27.38l.11,41.51c0,.36-.13.67-.38.92s-.56.38-.92.38h-12.54c-.36,0-.67-.12-.92-.38-.25-.25-.38-.56-.38-.92v-73.07c0-.36.12-.67.38-.92s.56-.38.92-.38h14.16c.72,0,1.19.36,1.41,1.08l13.51,41.83c.07.22.2.31.38.27.18-.04.27-.16.27-.38l-.11-41.51c0-.36.12-.67.38-.92Zm29.13,70.31c-3.96-3.89-5.95-9.08-5.95-15.57v-34.59c0-6.49,1.98-11.67,5.95-15.57,3.96-3.89,9.26-5.84,15.89-5.84s11.94,1.95,15.94,5.84c4,3.89,6,9.08,6,15.57v34.59c0,6.49-2,11.67-6,15.57-4,3.89-9.31,5.84-15.94,5.84s-11.93-1.95-15.89-5.84Zm20.75-9.35c1.22-1.41,1.84-3.26,1.84-5.57v-35.89c0-2.31-.61-4.16-1.84-5.57-1.23-1.41-2.85-2.11-4.86-2.11s-3.62.7-4.81,2.11c-1.19,1.41-1.78,3.26-1.78,5.57v35.89c0,2.31.59,4.16,1.78,5.57,1.19,1.41,2.79,2.11,4.81,2.11s3.64-.7,4.86-2.11Zm53.83,13.24l-8.32-29.83c-.15-.29-.32-.43-.54-.43h-3.67c-.36,0-.54.18-.54.54v29.51c0,.36-.13.67-.38.92s-.56.38-.92.38h-12.65c-.36,0-.67-.12-.92-.38-.25-.25-.38-.56-.38-.92v-73.07c0-.36.12-.67.38-.92s.56-.38.92-.38h21.83c3.96,0,7.49.96,10.59,2.86,3.1,1.91,5.49,4.59,7.19,8.05,1.69,3.46,2.54,7.42,2.54,11.89s-.81,8-2.43,11.24c-1.62,3.24-3.88,5.77-6.76,7.57-.15.07-.25.16-.32.27-.07.11-.07.23,0,.38l9.94,31.89.11.43c0,.72-.4,1.08-1.19,1.08h-12.97c-.79,0-1.3-.36-1.51-1.08Zm-13.08-60.96v18.48c0,.36.18.54.54.54h4.86c2.23,0,4.05-.88,5.46-2.65,1.41-1.76,2.11-4.12,2.11-7.08s-.7-5.42-2.11-7.19c-1.41-1.76-3.23-2.65-5.46-2.65h-4.86c-.36,0-.54.18-.54.54Zm78.53-13.24c.25.25.38.56.38.92v10.49c0,.36-.13.67-.38.92s-.56.38-.92.38h-13.51c-.36,0-.54.18-.54.54v60.75c0,.36-.13.67-.38.92s-.56.38-.92.38h-12.65c-.36,0-.67-.12-.92-.38-.25-.25-.38-.56-.38-.92v-60.75c0-.36-.18-.54-.54-.54h-12.97c-.36,0-.67-.12-.92-.38-.25-.25-.38-.56-.38-.92v-10.49c0-.36.12-.67.38-.92.25-.25.56-.38.92-.38h42.8c.36,0,.67.13.92.38Zm35.24,0c.25-.25.56-.38.92-.38h12.65c.36,0,.67.13.92.38.25.25.38.56.38.92v73.07c0,.36-.13.67-.38.92s-.56.38-.92.38h-12.65c-.36,0-.67-.12-.92-.38-.25-.25-.38-.56-.38-.92v-29.51c0-.36-.18-.54-.54-.54h-10.81c-.36,0-.54.18-.54.54v29.51c0,.36-.13.67-.38.92-.25.25-.56.38-.92.38h-12.65c-.36,0-.67-.12-.92-.38-.25-.25-.38-.56-.38-.92v-73.07c0-.36.12-.67.38-.92s.56-.38.92-.38h12.65c.36,0,.67.13.92.38.25.25.38.56.38.92v29.4c0,.36.18.54.54.54h10.81c.36,0,.54-.18.54-.54v-29.4c0-.36.12-.67.38-.92Zm82.21-.38h12.54c.36,0,.67.13.92.38.25.25.38.56.38.92v73.07c0,.36-.13.67-.38.92s-.56.38-.92.38h-12.65c-.36,0-.67-.12-.92-.38-.25-.25-.38-.56-.38-.92v-48.53c0-.29-.07-.43-.22-.43s-.29.11-.43.32l-8.43,14.92c-.36.58-.65.86-.87.86s-.5-.29-.86-.86l-8.43-14.92c-.15-.22-.29-.32-.43-.32s-.22.15-.22.43v48.53c0,.36-.13.67-.38.92-.25.25-.56.38-.92.38h-12.65c-.36,0-.67-.12-.92-.38-.25-.25-.38-.56-.38-.92v-73.07c0-.36.12-.67.38-.92s.56-.38.92-.38h12.43c.72,0,1.26.29,1.62.87l9.62,17.19c.22.29.43.29.65,0l9.3-17.19c.29-.58.83-.87,1.62-.87Zm27.89,70.69c-3.96-3.89-5.95-9.08-5.95-15.57v-34.59c0-6.49,1.98-11.67,5.95-15.57,3.96-3.89,9.26-5.84,15.89-5.84s11.94,1.95,15.94,5.84c4,3.89,6,9.08,6,15.57v34.59c0,6.49-2,11.67-6,15.57-4,3.89-9.31,5.84-15.94,5.84s-11.93-1.95-15.89-5.84Zm20.75-9.35c1.22-1.41,1.84-3.26,1.84-5.57v-35.89c0-2.31-.61-4.16-1.84-5.57-1.23-1.41-2.85-2.11-4.86-2.11s-3.62.7-4.81,2.11c-1.19,1.41-1.78,3.26-1.78,5.57v35.89c0,2.31.59,4.16,1.78,5.57,1.19,1.41,2.79,2.11,4.81,2.11s3.64-.7,4.86-2.11Zm25.89,13.94c-.25-.25-.38-.56-.38-.92v-73.07c0-.36.12-.67.38-.92s.56-.38.92-.38h19.56c6.56,0,11.82,1.91,15.78,5.73,3.96,3.82,5.95,8.9,5.95,15.24v33.72c0,6.34-1.98,11.42-5.95,15.24-3.96,3.82-9.23,5.73-15.78,5.73h-19.56c-.36,0-.67-.12-.92-.38Zm15.4-12.7l4.86-.11c1.95-.07,3.53-.9,4.76-2.49,1.22-1.58,1.87-3.67,1.95-6.27v-31.78c0-2.74-.61-4.9-1.84-6.49-1.23-1.58-2.88-2.38-4.97-2.38h-4.76c-.36,0-.54.18-.54.54v48.43c0,.36.18.54.54.54Zm35.73,12.7c-.25-.25-.38-.56-.38-.92v-73.07c0-.36.12-.67.38-.92s.56-.38.92-.38h19.57c6.56,0,11.82,1.91,15.78,5.73,3.96,3.82,5.95,8.9,5.95,15.24v33.72c0,6.34-1.98,11.42-5.95,15.24-3.96,3.82-9.22,5.73-15.78,5.73h-19.57c-.36,0-.67-.12-.92-.38Zm15.4-12.7l4.86-.11c1.95-.07,3.53-.9,4.76-2.49,1.22-1.58,1.87-3.67,1.95-6.27v-31.78c0-2.74-.61-4.9-1.84-6.49-1.23-1.58-2.88-2.38-4.97-2.38h-4.76c-.36,0-.54.18-.54.54v48.43c0,.36.18.54.54.54Zm36.05,12.7c-.25-.25-.38-.56-.38-.92v-73.07c0-.36.12-.67.38-.92s.56-.38.92-.38h12.65c.36,0,.67.13.92.38.25.25.38.56.38.92v73.07c0,.36-.13.67-.38.92s-.56.38-.92.38h-12.65c-.36,0-.67-.12-.92-.38Zm55.78-74.91c.25-.25.56-.38.92-.38h12.54c.36,0,.67.13.92.38.25.25.38.56.38.92v73.07c0,.36-.13.67-.38.92s-.56.38-.92.38h-14.27c-.72,0-1.19-.36-1.41-1.08l-13.4-41.83c-.07-.22-.2-.31-.38-.27-.18.04-.27.16-.27.38l.11,41.51c0,.36-.13.67-.38.92s-.56.38-.92.38h-12.54c-.36,0-.67-.12-.92-.38-.25-.25-.38-.56-.38-.92v-73.07c0-.36.12-.67.38-.92.25-.25.56-.38.92-.38h14.16c.72,0,1.19.36,1.41,1.08l13.51,41.83c.07.22.2.31.38.27.18-.04.27-.16.27-.38l-.11-41.51c0-.36.12-.67.38-.92Zm29.08,70.58c-3.93-3.71-5.89-8.66-5.89-14.86v-36.54c0-6.2,1.96-11.15,5.89-14.86,3.93-3.71,9.13-5.57,15.62-5.57s11.71,1.87,15.67,5.62c3.96,3.75,5.95,8.72,5.95,14.92v4.11c0,.36-.13.67-.38.92s-.56.38-.92.38h-12.65c-.36,0-.67-.12-.92-.38-.25-.25-.38-.56-.38-.92v-4.32c0-2.16-.58-3.91-1.73-5.24-1.15-1.33-2.7-2-4.65-2s-3.39.67-4.54,2c-1.15,1.33-1.73,3.08-1.73,5.24v36.75c0,2.16.58,3.91,1.73,5.24,1.15,1.33,2.67,2,4.54,2s3.5-.67,4.65-2c1.15-1.33,1.73-3.08,1.73-5.24v-8.65c0-.36-.18-.54-.54-.54h-4.76c-.36,0-.67-.12-.92-.38-.25-.25-.38-.56-.38-.92v-9.62c0-.36.12-.67.38-.92.25-.25.56-.38.92-.38h19.24c.36,0,.67.13.92.38.25.25.38.56.38.92v20c0,6.2-1.98,11.15-5.95,14.86-3.96,3.71-9.19,5.57-15.67,5.57s-11.69-1.85-15.62-5.57Zm72.1-.22c-3.93-3.85-5.89-9.03-5.89-15.51v-35.02c0-6.41,1.96-11.53,5.89-15.35,3.93-3.82,9.13-5.73,15.62-5.73s11.8,1.91,15.73,5.73c3.93,3.82,5.89,8.94,5.89,15.35v1.19c0,.36-.13.67-.38.92s-.56.38-.92.38l-12.65.54c-.86,0-1.3-.4-1.3-1.19v-2.81c0-2.09-.58-3.78-1.73-5.08-1.15-1.3-2.7-1.95-4.65-1.95s-3.39.65-4.54,1.95c-1.15,1.3-1.73,2.99-1.73,5.08v37.29c0,2.09.58,3.77,1.73,5.03,1.15,1.26,2.67,1.89,4.54,1.89s3.5-.63,4.65-1.89c1.15-1.26,1.73-2.94,1.73-5.03v-2.92c0-.36.12-.67.38-.92s.56-.38.92-.38l12.65.54c.36,0,.67.13.92.38.25.25.38.56.38.92v1.08c0,6.49-1.98,11.66-5.95,15.51-3.96,3.86-9.19,5.78-15.67,5.78s-11.69-1.93-15.62-5.78Zm50.21-.05c-3.96-3.89-5.95-9.08-5.95-15.57v-34.59c0-6.49,1.98-11.67,5.95-15.57,3.96-3.89,9.26-5.84,15.89-5.84s11.95,1.95,15.94,5.84,6,9.08,6,15.57v34.59c0,6.49-2,11.67-6,15.57-4,3.89-9.31,5.84-15.94,5.84s-11.93-1.95-15.89-5.84Zm20.75-9.35c1.22-1.41,1.84-3.26,1.84-5.57v-35.89c0-2.31-.61-4.16-1.84-5.57-1.23-1.41-2.85-2.11-4.86-2.11s-3.62.7-4.81,2.11c-1.19,1.41-1.78,3.26-1.78,5.57v35.89c0,2.31.59,4.16,1.78,5.57,1.19,1.41,2.79,2.11,4.81,2.11s3.64-.7,4.86-2.11Zm61.72-61.34h12.54c.36,0,.67.13.92.38.25.25.38.56.38.92v73.07c0,.36-.13.67-.38.92-.25.25-.56.38-.92.38h-12.65c-.36,0-.67-.12-.92-.38-.25-.25-.38-.56-.38-.92v-48.53c0-.29-.07-.43-.22-.43s-.29.11-.43.32l-8.43,14.92c-.36.58-.65.86-.86.86s-.51-.29-.87-.86l-8.43-14.92c-.14-.22-.29-.32-.43-.32s-.22.15-.22.43v48.53c0,.36-.13.67-.38.92-.25.25-.56.38-.92.38h-12.65c-.36,0-.67-.12-.92-.38-.25-.25-.38-.56-.38-.92v-73.07c0-.36.12-.67.38-.92.25-.25.56-.38.92-.38h12.43c.72,0,1.26.29,1.62.87l9.62,17.19c.22.29.43.29.65,0l9.3-17.19c.29-.58.83-.87,1.62-.87Zm56.64,2.81c3.1,1.95,5.49,4.67,7.19,8.16,1.69,3.5,2.54,7.48,2.54,11.94,0,6.7-1.8,12.07-5.4,16.11-3.6,4.04-8.32,6.05-14.16,6.05h-8.11c-.36,0-.54.18-.54.54v28.75c0,.36-.13.67-.38.92s-.56.38-.92.38h-12.65c-.36,0-.67-.12-.92-.38-.25-.25-.38-.56-.38-.92v-73.18c0-.36.12-.67.38-.92s.56-.38.92-.38h21.83c3.96,0,7.49.97,10.59,2.92Zm-7.62,27.73c1.41-1.77,2.11-4.2,2.11-7.3s-.7-5.66-2.11-7.46c-1.41-1.8-3.26-2.7-5.57-2.7h-4.76c-.36,0-.54.18-.54.54v19.02c0,.36.18.54.54.54h4.76c2.31,0,4.16-.88,5.57-2.65Zm50.97,43.94l-1.73-10.38c0-.36-.22-.54-.65-.54h-13.73c-.43,0-.65.18-.65.54l-1.73,10.38c-.07.79-.54,1.19-1.41,1.19h-12.65c-.94,0-1.3-.47-1.08-1.41l15.89-73.07c.14-.79.61-1.19,1.41-1.19h14.59c.79,0,1.26.4,1.41,1.19l15.78,73.07.11.43c0,.65-.4.97-1.19.97h-12.97c-.87,0-1.33-.4-1.41-1.19Zm-14.16-22.7h9.73c.36,0,.5-.18.43-.54l-5.08-29.51c-.07-.22-.18-.33-.32-.33s-.25.11-.32.33l-4.86,29.51c0,.36.14.54.43.54Zm67.18-51.4c.25-.25.56-.38.92-.38h12.54c.36,0,.67.13.92.38.25.25.38.56.38.92v73.07c0,.36-.13.67-.38.92s-.56.38-.92.38h-14.27c-.72,0-1.19-.36-1.41-1.08l-13.4-41.83c-.07-.22-.2-.31-.38-.27-.18.04-.27.16-.27.38l.11,41.51c0,.36-.13.67-.38.92s-.56.38-.92.38h-12.54c-.36,0-.67-.12-.92-.38-.25-.25-.38-.56-.38-.92v-73.07c0-.36.12-.67.38-.92.25-.25.56-.38.92-.38h14.16c.72,0,1.19.36,1.41,1.08l13.51,41.83c.07.22.2.31.38.27.18-.04.27-.16.27-.38l-.11-41.51c0-.36.12-.67.38-.92Zm37.83,74.8c-.25-.25-.38-.56-.38-.92v-28.1l-.11-.65-15.13-43.99c-.07-.14-.11-.32-.11-.54,0-.65.39-.97,1.19-.97h13.3c.79,0,1.3.36,1.51,1.08l6.7,25.83c.07.22.18.32.32.32s.25-.11.32-.32l6.7-25.83c.22-.72.72-1.08,1.51-1.08h13.29c.43,0,.76.13.97.38.22.25.25.63.11,1.13l-15.24,43.99-.11.65v28.1c0,.36-.13.67-.38.92-.25.25-.56.38-.92.38h-12.65c-.36,0-.67-.12-.92-.38Zm-212.99-80.73l10.91,19.34,10.72-19.34-10.72-29.27-10.91,29.27Zm-4.53-2.9v-5.84h-4.62v5.84h-5.17v-12.67h-4.62v12.67h-5.17v-5.84h-4.62v5.84h-5.17v-12.67h-4.62v12.67h-5.17v-5.84h-4.62v5.84h-5.17v-12.67h-4.62v12.67h-5.17v-5.84h-4.62v5.84h-5.17v-12.67h-4.62v18.24h76.14l-1.41-2.61c-.09-.16-.08-.35,0-.5l1.41-2.45h-3Zm27.99,5.57h71.91s0-18.24,0-18.24h-4.62s0,12.67,0,12.67h-5.17v-5.84s-4.62,0-4.62,0v5.84h-5.17v-12.67s-4.62,0-4.62,0v12.67h-5.17v-5.84s-4.62,0-4.62,0v5.84h-5.17v-12.67s-4.62,0-4.62,0v12.67h-5.17v-5.84s-4.62,0-4.62,0v5.84h-5.17v-12.67s-4.62,0-4.62,0v12.67h-5.17v-5.84s-4.62,0-4.62,0v1.51s2.82,6.92,2.82,6.92c.03.07.02.15-.01.22l-1.58,2.76Zm2.84-29.17s.09-.06.16-.06h2.13c.06,0,.11.02.16.06.04.04.06.1.06.16v12.42c0,.06-.02.11-.06.16-.04.04-.1.06-.16.06h-2.42c-.12,0-.2-.06-.24-.18l-2.28-7.11s-.03-.05-.06-.05c-.03,0-.05.03-.05.06l.02,7.05c0,.06-.02.11-.06.16-.04.04-.1.06-.16.06h-2.13c-.06,0-.11-.02-.16-.06-.04-.04-.06-.09-.06-.16v-12.42c0-.06.02-.11.06-.16.04-.04.09-.06.16-.06h2.41c.12,0,.2.06.24.18l2.3,7.11s.03.05.06.05c.03,0,.05-.03.05-.06l-.02-7.05c0-.06.02-.11.06-.16Z"></path></g></svg>